<?xml version="1.0" standalone="no"?>
<!DOCTYPE svg PUBLIC "-//W3C//DTD SVG 20010904//EN"
 "http://www.w3.org/TR/2001/REC-SVG-20010904/DTD/svg10.dtd">
<svg version="1.0" xmlns="http://www.w3.org/2000/svg"
 width="300.000000pt" height="300.000000pt" viewBox="0 0 300.000000 300.000000"
 preserveAspectRatio="xMidYMid meet">
<metadata>
Created by potrace 1.11, written by Peter Selinger 2001-2013
</metadata>
<g transform="translate(0.000000,300.000000) scale(0.100000,-0.100000)"
fill="#000000" stroke="none">
<path d="M1394 2596 c-2 -6 -5 -58 -6 -116 l-3 -105 -230 0 -230 0 -2 -105
c-1 -58 -2 -111 -2 -117 -1 -10 -31 -13 -116 -13 l-115 0 0 -118 0 -119 -95 0
c-53 0 -99 -3 -102 -7 -4 -3 -7 -45 -7 -92 l-1 -85 -27 5 c-34 7 -86 30 -116
52 -13 10 -22 13 -21 8 5 -28 -5 -43 -43 -60 -43 -19 -47 -21 -73 -23 -8 0
-15 -4 -15 -8 0 -5 69 -8 153 -8 94 0 152 -4 152 -10 1 -22 17 -88 24 -104 74
-148 80 -159 146 -226 103 -105 226 -168 393 -200 89 -17 312 -17 413 0 41 7
77 11 82 8 4 -2 7 0 7 4 0 5 8 9 18 10 44 3 172 45 262 86 163 75 346 229 438
368 l44 66 208 -1 c114 -1 206 2 203 7 -2 4 -11 7 -18 7 -37 0 -94 33 -108 62
-13 26 -16 28 -24 13 -5 -9 -13 -16 -17 -16 -3 1 -19 -5 -34 -13 -45 -23 -161
-39 -184 -25 -10 7 -10 9 -1 9 7 0 12 3 10 8 -1 4 11 35 28 70 l29 62 46 1
c69 1 101 8 155 34 62 30 95 59 128 116 l26 44 -42 22 c-63 33 -146 45 -220
32 -40 -7 -46 -3 -53 38 -8 44 -53 110 -112 164 l-56 51 -18 -24 c-68 -84 -83
-240 -32 -342 16 -34 18 -55 4 -57 -15 -2 -22 -4 -54 -18 -44 -18 -92 -24
-191 -25 l-90 -1 0 115 0 115 -118 3 -117 3 0 233 0 233 -136 -1 c-86 0 -138
-4 -140 -10z"/>
<path d="M571 1026 c-14 -17 -21 -85 -9 -92 5 -3 5 -11 1 -17 -9 -15 -9 -49 1
-65 10 -17 5 -15 -52 13 -99 50 -205 30 -292 -54 -30 -29 -52 -95 -52 -157 0
-132 95 -229 225 -233 67 -2 120 16 167 56 46 40 69 82 74 141 3 23 7 45 10
50 2 4 1 14 -4 22 -4 7 -5 23 0 34 4 12 4 30 0 41 -4 11 -4 31 0 45 4 14 4 37
0 51 -4 15 -4 32 0 39 4 7 4 27 0 45 -4 19 -4 37 1 42 13 13 -18 53 -40 53
-10 0 -24 -6 -30 -14z m-91 -238 c55 -38 74 -72 74 -132 0 -118 -112 -188
-216 -137 -54 27 -79 61 -86 118 -14 127 126 220 228 151z"/>
<path d="M1671 1027 c-14 -17 -13 -577 1 -594 14 -17 43 -16 58 2 6 8 12 35
12 60 0 25 2 45 5 45 4 0 34 -27 69 -60 66 -64 91 -73 112 -40 17 27 9 40 -82
130 -42 41 -76 79 -76 85 0 5 36 45 79 88 84 84 98 108 74 132 -24 24 -40 18
-104 -42 -33 -32 -64 -59 -69 -61 -5 -2 -8 51 -8 118 1 78 -3 125 -10 132 -17
17 -48 19 -61 5z"/>
<path d="M890 889 c-25 -4 -57 -12 -71 -17 -39 -15 -94 -72 -115 -117 -23 -49
-23 -144 0 -195 63 -144 242 -184 372 -85 124 94 98 323 -43 390 -21 10 -39
18 -40 17 -2 0 -15 3 -30 7 -16 4 -48 4 -73 0z m92 -91 c68 -38 99 -93 92
-159 -3 -24 -9 -46 -12 -49 -4 -3 -15 -17 -24 -31 -38 -60 -153 -75 -207 -27
-30 27 -55 58 -57 73 -1 5 -4 21 -7 35 -8 41 19 102 58 136 29 24 48 31 85 33
27 1 59 -4 72 -11z"/>
<path d="M1393 889 c-121 -22 -193 -114 -189 -241 2 -55 8 -77 32 -115 60 -98
159 -134 274 -103 62 18 80 45 52 81 -17 20 -20 20 -53 6 -84 -35 -189 6 -215
84 -21 65 -10 114 40 169 39 44 69 48 193 24 28 -5 34 -3 42 17 12 33 5 44
-37 62 -48 21 -87 25 -139 16z"/>
<path d="M2142 881 c-142 -48 -205 -204 -135 -332 59 -109 184 -157 293 -113
53 21 66 45 42 74 -17 21 -21 22 -58 9 -47 -16 -73 -19 -97 -12 -15 4 -11 11
24 41 24 21 54 47 67 59 12 11 40 35 62 53 72 59 80 67 83 90 6 36 -44 91
-108 120 -61 28 -113 31 -173 11z m144 -87 c39 -19 51 -33 36 -43 -15 -10 -99
-82 -151 -129 -70 -66 -76 -67 -95 -28 -61 129 79 262 210 200z"/>
<path d="M2663 880 c-52 -12 -115 -66 -145 -123 -16 -32 -20 -61 -21 -175 -2
-142 3 -162 42 -162 32 0 38 22 39 136 0 62 3 125 6 141 10 46 73 100 126 108
48 8 60 18 60 51 0 33 -36 41 -107 24z"/>
</g>
</svg>
